%TF.GenerationSoftware,KiCad,Pcbnew,8.0.8*%
%TF.CreationDate,2025-04-07T19:22:35+01:00*%
%TF.ProjectId,Pico ToF,5069636f-2054-46f4-962e-6b696361645f,rev?*%
%TF.SameCoordinates,Original*%
%TF.FileFunction,Legend,Top*%
%TF.FilePolarity,Positive*%
%FSLAX46Y46*%
G04 Gerber Fmt 4.6, Leading zero omitted, Abs format (unit mm)*
G04 Created by KiCad (PCBNEW 8.0.8) date 2025-04-07 19:22:35*
%MOMM*%
%LPD*%
G01*
G04 APERTURE LIST*
%ADD10C,0.254000*%
%ADD11C,0.100000*%
%ADD12C,0.200000*%
G04 APERTURE END LIST*
D10*
X128739485Y-107781368D02*
X128739485Y-106511368D01*
X128739485Y-106511368D02*
X129223295Y-106511368D01*
X129223295Y-106511368D02*
X129344247Y-106571844D01*
X129344247Y-106571844D02*
X129404724Y-106632320D01*
X129404724Y-106632320D02*
X129465200Y-106753272D01*
X129465200Y-106753272D02*
X129465200Y-106934701D01*
X129465200Y-106934701D02*
X129404724Y-107055653D01*
X129404724Y-107055653D02*
X129344247Y-107116130D01*
X129344247Y-107116130D02*
X129223295Y-107176606D01*
X129223295Y-107176606D02*
X128739485Y-107176606D01*
X130009485Y-107781368D02*
X130009485Y-106934701D01*
X130009485Y-106511368D02*
X129949009Y-106571844D01*
X129949009Y-106571844D02*
X130009485Y-106632320D01*
X130009485Y-106632320D02*
X130069962Y-106571844D01*
X130069962Y-106571844D02*
X130009485Y-106511368D01*
X130009485Y-106511368D02*
X130009485Y-106632320D01*
X131158533Y-107720892D02*
X131037581Y-107781368D01*
X131037581Y-107781368D02*
X130795676Y-107781368D01*
X130795676Y-107781368D02*
X130674724Y-107720892D01*
X130674724Y-107720892D02*
X130614247Y-107660415D01*
X130614247Y-107660415D02*
X130553771Y-107539463D01*
X130553771Y-107539463D02*
X130553771Y-107176606D01*
X130553771Y-107176606D02*
X130614247Y-107055653D01*
X130614247Y-107055653D02*
X130674724Y-106995177D01*
X130674724Y-106995177D02*
X130795676Y-106934701D01*
X130795676Y-106934701D02*
X131037581Y-106934701D01*
X131037581Y-106934701D02*
X131158533Y-106995177D01*
X131884247Y-107781368D02*
X131763295Y-107720892D01*
X131763295Y-107720892D02*
X131702818Y-107660415D01*
X131702818Y-107660415D02*
X131642342Y-107539463D01*
X131642342Y-107539463D02*
X131642342Y-107176606D01*
X131642342Y-107176606D02*
X131702818Y-107055653D01*
X131702818Y-107055653D02*
X131763295Y-106995177D01*
X131763295Y-106995177D02*
X131884247Y-106934701D01*
X131884247Y-106934701D02*
X132065676Y-106934701D01*
X132065676Y-106934701D02*
X132186628Y-106995177D01*
X132186628Y-106995177D02*
X132247104Y-107055653D01*
X132247104Y-107055653D02*
X132307580Y-107176606D01*
X132307580Y-107176606D02*
X132307580Y-107539463D01*
X132307580Y-107539463D02*
X132247104Y-107660415D01*
X132247104Y-107660415D02*
X132186628Y-107720892D01*
X132186628Y-107720892D02*
X132065676Y-107781368D01*
X132065676Y-107781368D02*
X131884247Y-107781368D01*
X133638057Y-106511368D02*
X134363771Y-106511368D01*
X134000914Y-107781368D02*
X134000914Y-106511368D01*
X134968533Y-107781368D02*
X134847581Y-107720892D01*
X134847581Y-107720892D02*
X134787104Y-107660415D01*
X134787104Y-107660415D02*
X134726628Y-107539463D01*
X134726628Y-107539463D02*
X134726628Y-107176606D01*
X134726628Y-107176606D02*
X134787104Y-107055653D01*
X134787104Y-107055653D02*
X134847581Y-106995177D01*
X134847581Y-106995177D02*
X134968533Y-106934701D01*
X134968533Y-106934701D02*
X135149962Y-106934701D01*
X135149962Y-106934701D02*
X135270914Y-106995177D01*
X135270914Y-106995177D02*
X135331390Y-107055653D01*
X135331390Y-107055653D02*
X135391866Y-107176606D01*
X135391866Y-107176606D02*
X135391866Y-107539463D01*
X135391866Y-107539463D02*
X135331390Y-107660415D01*
X135331390Y-107660415D02*
X135270914Y-107720892D01*
X135270914Y-107720892D02*
X135149962Y-107781368D01*
X135149962Y-107781368D02*
X134968533Y-107781368D01*
X136359486Y-107116130D02*
X135936152Y-107116130D01*
X135936152Y-107781368D02*
X135936152Y-106511368D01*
X135936152Y-106511368D02*
X136540914Y-106511368D01*
X152913842Y-95657619D02*
X152974318Y-95476190D01*
X152974318Y-95476190D02*
X152974318Y-95173809D01*
X152974318Y-95173809D02*
X152913842Y-95052857D01*
X152913842Y-95052857D02*
X152853365Y-94992381D01*
X152853365Y-94992381D02*
X152732413Y-94931904D01*
X152732413Y-94931904D02*
X152611461Y-94931904D01*
X152611461Y-94931904D02*
X152490508Y-94992381D01*
X152490508Y-94992381D02*
X152430032Y-95052857D01*
X152430032Y-95052857D02*
X152369556Y-95173809D01*
X152369556Y-95173809D02*
X152309080Y-95415714D01*
X152309080Y-95415714D02*
X152248603Y-95536666D01*
X152248603Y-95536666D02*
X152188127Y-95597143D01*
X152188127Y-95597143D02*
X152067175Y-95657619D01*
X152067175Y-95657619D02*
X151946222Y-95657619D01*
X151946222Y-95657619D02*
X151825270Y-95597143D01*
X151825270Y-95597143D02*
X151764794Y-95536666D01*
X151764794Y-95536666D02*
X151704318Y-95415714D01*
X151704318Y-95415714D02*
X151704318Y-95113333D01*
X151704318Y-95113333D02*
X151764794Y-94931904D01*
X152974318Y-93722380D02*
X152974318Y-94448095D01*
X152974318Y-94085238D02*
X151704318Y-94085238D01*
X151704318Y-94085238D02*
X151885746Y-94206190D01*
X151885746Y-94206190D02*
X152006699Y-94327142D01*
X152006699Y-94327142D02*
X152067175Y-94448095D01*
X153954318Y-80402859D02*
X154861461Y-80402859D01*
X154861461Y-80402859D02*
X155042889Y-80463336D01*
X155042889Y-80463336D02*
X155163842Y-80584288D01*
X155163842Y-80584288D02*
X155224318Y-80765717D01*
X155224318Y-80765717D02*
X155224318Y-80886669D01*
X155224318Y-79132859D02*
X155224318Y-79858574D01*
X155224318Y-79495717D02*
X153954318Y-79495717D01*
X153954318Y-79495717D02*
X154135746Y-79616669D01*
X154135746Y-79616669D02*
X154256699Y-79737621D01*
X154256699Y-79737621D02*
X154317175Y-79858574D01*
D11*
X151340419Y-74992268D02*
X151340419Y-74897030D01*
X151340419Y-74897030D02*
X151388038Y-74801792D01*
X151388038Y-74801792D02*
X151435657Y-74754173D01*
X151435657Y-74754173D02*
X151530895Y-74706554D01*
X151530895Y-74706554D02*
X151721371Y-74658935D01*
X151721371Y-74658935D02*
X151959466Y-74658935D01*
X151959466Y-74658935D02*
X152149942Y-74706554D01*
X152149942Y-74706554D02*
X152245180Y-74754173D01*
X152245180Y-74754173D02*
X152292800Y-74801792D01*
X152292800Y-74801792D02*
X152340419Y-74897030D01*
X152340419Y-74897030D02*
X152340419Y-74992268D01*
X152340419Y-74992268D02*
X152292800Y-75087506D01*
X152292800Y-75087506D02*
X152245180Y-75135125D01*
X152245180Y-75135125D02*
X152149942Y-75182744D01*
X152149942Y-75182744D02*
X151959466Y-75230363D01*
X151959466Y-75230363D02*
X151721371Y-75230363D01*
X151721371Y-75230363D02*
X151530895Y-75182744D01*
X151530895Y-75182744D02*
X151435657Y-75135125D01*
X151435657Y-75135125D02*
X151388038Y-75087506D01*
X151388038Y-75087506D02*
X151340419Y-74992268D01*
X151340419Y-74373220D02*
X152340419Y-74039887D01*
X152340419Y-74039887D02*
X151340419Y-73706554D01*
G36*
X152141684Y-86909084D02*
G01*
X151868132Y-86909084D01*
X151868132Y-87183125D01*
X151750896Y-87183125D01*
X151750896Y-86909084D01*
X151485159Y-86909084D01*
X151485159Y-86792336D01*
X151750896Y-86792336D01*
X151750896Y-86518296D01*
X151868132Y-86518296D01*
X151868132Y-86792336D01*
X152141684Y-86792336D01*
X152141684Y-86909084D01*
G37*
G36*
X152298000Y-85920633D02*
G01*
X152298000Y-86044220D01*
X151506164Y-86044220D01*
X151538587Y-86081658D01*
X151568309Y-86122855D01*
X151592626Y-86161457D01*
X151617394Y-86205339D01*
X151639790Y-86250249D01*
X151657106Y-86291638D01*
X151532054Y-86291638D01*
X151509926Y-86247475D01*
X151482262Y-86200065D01*
X151452064Y-86155922D01*
X151419331Y-86115046D01*
X151415062Y-86110166D01*
X151381005Y-86074170D01*
X151343312Y-86040463D01*
X151302201Y-86011441D01*
X151281949Y-86000256D01*
X151281949Y-85920633D01*
X152298000Y-85920633D01*
G37*
G36*
X152180763Y-84957828D02*
G01*
X152298000Y-84957828D01*
X152298000Y-85623634D01*
X152248798Y-85619676D01*
X152212026Y-85609224D01*
X152165437Y-85588014D01*
X152123534Y-85562521D01*
X152082060Y-85531113D01*
X152077937Y-85527647D01*
X152039082Y-85492244D01*
X152001820Y-85454157D01*
X151967112Y-85415722D01*
X151930440Y-85372519D01*
X151925041Y-85365958D01*
X151891972Y-85326589D01*
X151853117Y-85282057D01*
X151817016Y-85242726D01*
X151777331Y-85202391D01*
X151736046Y-85164798D01*
X151709863Y-85144185D01*
X151665888Y-85116203D01*
X151618614Y-85095853D01*
X151568541Y-85086526D01*
X151559653Y-85086300D01*
X151507263Y-85093719D01*
X151461468Y-85115975D01*
X151434601Y-85139056D01*
X151405538Y-85178910D01*
X151388539Y-85226268D01*
X151383554Y-85275832D01*
X151389016Y-85328220D01*
X151407642Y-85377803D01*
X151439486Y-85418958D01*
X151483047Y-85449498D01*
X151531514Y-85466443D01*
X151582354Y-85472883D01*
X151594580Y-85473180D01*
X151581147Y-85600187D01*
X151528822Y-85592791D01*
X151481393Y-85580311D01*
X151432244Y-85559327D01*
X151389757Y-85531425D01*
X151358642Y-85502001D01*
X151328758Y-85461915D01*
X151306215Y-85416242D01*
X151291012Y-85364983D01*
X151283822Y-85316600D01*
X151281949Y-85273145D01*
X151284791Y-85220953D01*
X151295292Y-85165423D01*
X151313529Y-85115666D01*
X151339504Y-85071683D01*
X151362794Y-85043801D01*
X151400010Y-85010873D01*
X151447065Y-84983144D01*
X151498943Y-84965978D01*
X151548294Y-84959624D01*
X151563073Y-84959293D01*
X151612164Y-84963365D01*
X151660610Y-84975579D01*
X151682752Y-84983962D01*
X151727608Y-85007066D01*
X151770296Y-85036331D01*
X151806339Y-85066028D01*
X151846709Y-85104322D01*
X151883397Y-85142414D01*
X151918528Y-85180851D01*
X151957059Y-85224629D01*
X151984636Y-85256781D01*
X152017944Y-85295664D01*
X152051398Y-85333974D01*
X152085858Y-85372067D01*
X152112863Y-85399663D01*
X152150937Y-85431631D01*
X152180763Y-85451687D01*
X152180763Y-84957828D01*
G37*
G36*
X152298000Y-84491080D02*
G01*
X151281949Y-84881380D01*
X151281949Y-84737032D01*
X152020784Y-84475204D01*
X152069904Y-84458293D01*
X152117246Y-84443004D01*
X152167765Y-84427920D01*
X152187357Y-84422448D01*
X152135303Y-84407078D01*
X152088454Y-84392021D01*
X152041606Y-84375805D01*
X152020784Y-84368226D01*
X151281949Y-84096139D01*
X151281949Y-83960096D01*
X152298000Y-84354304D01*
X152298000Y-84491080D01*
G37*
%TO.C,S1*%
X152400000Y-99540000D02*
X152400000Y-99540000D01*
X152400000Y-99440000D02*
X152400000Y-99440000D01*
D12*
X150650000Y-97690000D02*
X150650000Y-91690000D01*
X151000000Y-97690000D02*
X150650000Y-97690000D01*
X153800000Y-97690000D02*
X154150000Y-97690000D01*
X154150000Y-97690000D02*
X154150000Y-91690000D01*
X150650000Y-91690000D02*
X151000000Y-91690000D01*
X154150000Y-91690000D02*
X153800000Y-91690000D01*
D11*
X152400000Y-99540000D02*
G75*
G02*
X152400000Y-99440000I0J50000D01*
G01*
X152400000Y-99440000D02*
G75*
G02*
X152400000Y-99540000I0J-50000D01*
G01*
D10*
%TO.C,PS1*%
X148510000Y-70540000D02*
X148510000Y-56540000D01*
X156010000Y-70540000D02*
X148510000Y-70540000D01*
X148510000Y-56540000D02*
X156010000Y-56540000D01*
X156010000Y-56540000D02*
X156010000Y-70540000D01*
X152519360Y-71382000D02*
G75*
G02*
X152292640Y-71382000I-113360J0D01*
G01*
X152292640Y-71382000D02*
G75*
G02*
X152519360Y-71382000I113360J0D01*
G01*
D11*
%TO.C,J1*%
X154500000Y-87579527D02*
X154500000Y-87579527D01*
X154500000Y-87479527D02*
X154500000Y-87479527D01*
D12*
X152788000Y-86979527D02*
X159580000Y-86979527D01*
X159580000Y-86979527D02*
X159580000Y-72979527D01*
X152788000Y-72979527D02*
X152788000Y-86979527D01*
X159580000Y-72979527D02*
X152788000Y-72979527D01*
D11*
X154500000Y-87579527D02*
G75*
G02*
X154500000Y-87479527I0J50000D01*
G01*
X154500000Y-87479527D02*
G75*
G02*
X154500000Y-87579527I0J-50000D01*
G01*
%TD*%
M02*
